<svg xmlns="http://www.w3.org/2000/svg" aria-hidden="true" style="position:absolute;width:0;height:0;overflow:hidden">
  <defs>
    <symbol id="icon-copy" viewBox="0 0 32 32">
      <path d="M20 8V0H6L0 6v18h12v8h20V8H20zM6 2.828V6H2.828L6 2.828zM2 22V8h6V2h10v6l-6 6v8H2zm16-11.172V14h-3.172L18 10.828zM30 30H14V16h6v-6h10v20z"/>
    </symbol>
    <symbol id="icon-settings" viewBox="0 0 32 32">
      <path d="M29.181 19.07c-1.679-2.908-.669-6.634 2.255-8.328l-3.145-5.447a6.022 6.022 0 0 1-3.058.829c-3.361 0-6.085-2.742-6.085-6.125h-6.289a6.023 6.023 0 0 1-.811 3.07C10.369 5.977 6.637 6.966 3.709 5.28L.565 10.727a6.023 6.023 0 0 1 2.246 2.234c1.676 2.903.672 6.623-2.241 8.319l3.145 5.447a6.022 6.022 0 0 1 3.044-.82c3.35 0 6.067 2.725 6.084 6.092h6.289a6.032 6.032 0 0 1 .811-3.038c1.676-2.903 5.399-3.894 8.325-2.219l3.145-5.447a6.032 6.032 0 0 1-2.232-2.226zM16 22.479A6.48 6.48 0 1 1 16 9.52a6.48 6.48 0 0 1 0 12.959z"/>
    </symbol>
    <symbol id="icon-delete" viewBox="0 0 32 32">
      <path d="M4 10v20c0 1.1.9 2 2 2h18c1.1 0 2-.9 2-2V10H4zm6 18H8V14h2v14zm4 0h-2V14h2v14zm4 0h-2V14h2v14zm4 0h-2V14h2v14zM26.5 4H20V1.5c0-.825-.675-1.5-1.5-1.5h-7c-.825 0-1.5.675-1.5 1.5V4H3.5C2.675 4 2 4.675 2 5.5V8h26V5.5c0-.825-.675-1.5-1.5-1.5zM18 4h-6V2.025h6V4z"/>
    </symbol>
    <symbol id="icon-share" viewBox="0 0 32 32">
      <path d="M27 22a4.985 4.985 0 0 0-3.594 1.526L9.937 16.792a5.035 5.035 0 0 0 0-1.582l13.469-6.734a5 5 0 1 0-1.343-2.683L8.594 12.527A5 5 0 1 0 5 21.001a4.985 4.985 0 0 0 3.594-1.526l13.469 6.734A5 5 0 1 0 27 22z"/>
    </symbol>
  </defs>
</svg>
